<svg id="Ebene_1" data-name="Ebene 1" xmlns="http://www.w3.org/2000/svg" viewBox="0 0 29.25 23.78"><defs><style>.cls-1{fill:#fff;}</style></defs><title>twitter_icon</title><g id="Logo_FIXED" data-name="Logo — FIXED"><path class="cls-1" d="M9.19,27c11,0,17.07-9.15,17.07-17.07,0-.26,0-.52,0-.78a12.16,12.16,0,0,0,3-3.11,12.14,12.14,0,0,1-3.46,1,6.07,6.07,0,0,0,2.65-3.33,11.78,11.78,0,0,1-3.82,1.46,6,6,0,0,0-10.38,4.1,6.84,6.84,0,0,0,.15,1.37A17,17,0,0,1,2,4.32a6,6,0,0,0,1.87,8,6.2,6.2,0,0,1-2.72-.75v.08A6,6,0,0,0,6,17.56a5.92,5.92,0,0,1-2.7.1,6,6,0,0,0,5.6,4.17A12,12,0,0,1,1.43,24.4,11.32,11.32,0,0,1,0,24.32,17,17,0,0,0,9.19,27" transform="translate(0 -3.22)"/></g></svg>