<?xml version="1.0" encoding="utf-8"?>
<!-- Generator: Adobe Illustrator 22.0.1, SVG Export Plug-In . SVG Version: 6.00 Build 0)  -->
<svg version="1.1" id="Ebene_1" xmlns="http://www.w3.org/2000/svg" xmlns:xlink="http://www.w3.org/1999/xlink" x="0px" y="0px"
	 viewBox="0 0 350 130" style="enable-background:new 0 0 350 130;" xml:space="preserve">
<style type="text/css">
	.st0{fill:#7F8D96;}
</style>
<path class="st0" d="M10.3,50.5c0.8-0.2,1.6-0.6,2.3-1.1c0.5-0.4,0.7-1.4,0.7-3.2V32.5c0-1.7-0.1-2.7-0.7-3.2
	c-0.7-0.5-1.4-0.8-2.3-1.1v-1c3.7-0.2,7.2-0.3,8.4-0.3c3.9,0,6.8,0.2,9,1.2c4,1.8,5.6,5.6,5.6,10.5c0,8.5-4.7,12.8-13,12.8h-10
	L10.3,50.5L10.3,50.5z M17.1,46c0,1.5,0.2,2.4,0.7,3c0.5,0.5,1.6,0.7,3.1,0.7c5.1,0,8.3-3.1,8.3-9.8c0-7.5-2.7-11-9.8-11
	c-0.7,0-1.5,0-2.2,0.1L17.1,46L17.1,46z"/>
<path class="st0" d="M41,42.7c0,4.4,2.4,6.3,5.8,6.3c1.7,0,3.5-0.4,5.1-1.1l-0.5,2.7c-1.7,0.8-3.6,1.3-5.6,1.2
	c-4.8,0-8.4-2.7-8.4-8.7s3.4-9.6,8.6-9.6c3.9,0,6.2,3,6.2,6.7c0,0.8-0.1,1.6-0.3,2.3L41,42.7L41,42.7z M41,40.6h7.4
	c0-0.3,0.1-0.6,0.1-0.9c0-2.7-1.7-3.9-3.4-3.9C42.6,35.9,41.2,37.4,41,40.6L41,40.6z"/>
<path class="st0" d="M61.8,34c-0.3,1-0.5,2.1-0.5,3.1v8.3c0,2.7,1.1,3.7,3.3,3.7c1.2,0,2.4-0.3,3.6-0.7v-8.3c0-1.9-0.1-3.2-0.7-3.8
	c-0.7-0.5-1.4-0.9-2.2-1.2v-0.9l6.7-0.6l0.2,0.2c-0.3,1-0.5,2.1-0.5,3.1v8.7c0,1.7,0.1,3.1,0.6,3.6c0.7,0.5,1.5,0.9,2.3,1.2v0.8
	h-5.6c-0.4-0.5-0.7-1.1-0.8-1.7c-1.7,1.2-3.6,1.9-5.6,2.1c-3,0-4.8-1.6-4.8-5.5c0-1,0.1-5.1,0.1-6.2c0-1.9-0.1-3.2-0.6-3.8
	c-0.7-0.5-1.4-0.9-2.2-1.2v-0.9l6.7-0.6L61.8,34z"/>
<path class="st0" d="M79.2,36.6h-2.3v-1.4c1.7-0.3,3.6-1.6,4.3-6.6h1.9l-0.3,6h5.3v2h-5.3v8.8c0,2.3,0.6,3.7,3,3.7
	c1.1,0,2.3-0.2,3.4-0.6l-0.4,2.5c-1.4,0.5-2.9,0.8-4.4,0.8c-2,0-3.7-0.7-4.5-2.4c-0.4-1.1-0.6-2.2-0.6-3.3L79.2,36.6L79.2,36.6z"/>
<path class="st0" d="M92,45.9h1.3c0.7,2.3,1.2,4,4.3,4c2.1,0,3.1-0.9,3.1-2.4c0-1.3-1.2-2-3.9-3.1C94.1,43.1,92,42,92,38.9
	s2.7-5.2,6.5-5.2c1.6,0,3.2,0.3,4.8,0.7V39h-1.3c-0.7-2.1-1.4-3.3-3.8-3.3c-1.6,0-2.9,0.8-2.9,2.1c0,1.3,1,2.1,3.5,3.2
	c3.1,1.3,5.3,2.6,5.3,5.3c0,3.6-3.1,5.6-6.7,5.6c-1.8,0-3.6-0.3-5.3-1L92,45.9L92,45.9z"/>
<path class="st0" d="M120.8,51c-1.5,0.6-3.2,0.9-4.8,0.9c-4.4,0-8.1-2.5-8.1-8.4c0-6,3.6-9.7,9-9.7c1.6-0.1,3.1,0.3,4.6,1
	c-0.1,1.2-0.5,2.4-1.2,3.4c-1.6-0.9-3.3-1.5-5.1-1.6c-2.5,0-3.5,1.9-3.5,5.4c0,3.8,1.2,7,5.5,7c1.4,0,2.8-0.2,4.1-0.6L120.8,51z"/>
<path class="st0" d="M134.4,50.7c0.7-0.3,1.4-0.6,2.1-1c0.6-0.4,0.7-1.4,0.7-3.1v-5.4c0-2.8-0.3-4.6-3.3-4.6c-1.2,0-2.5,0.2-3.7,0.6
	v9.3c0,1.7,0,2.7,0.6,3.1c0.7,0.4,1.4,0.8,2.1,1v0.8h-9.1v-0.8c0.8-0.3,1.5-0.6,2.2-1c0.6-0.4,0.7-1.4,0.7-3.1V30.6
	c0-1.9-0.1-3.1-0.7-3.5c-0.7-0.5-1.4-0.8-2.2-1v-0.9l6.5-1l0.2,0.2c-0.2,1-0.4,2-0.4,3V36c1.8-1.2,3.8-1.9,5.9-2.1
	c2.9,0,4.7,1.6,4.7,5.5v7.2c0,1.7,0.1,2.7,0.7,3.1c0.7,0.4,1.4,0.8,2.2,1v0.8h-9.1V50.7z"/>
<path class="st0" d="M150,42.7c0,4.4,2.4,6.3,5.8,6.3c1.7,0,3.5-0.4,5.1-1.1l-0.5,2.7c-1.7,0.8-3.6,1.3-5.6,1.2
	c-4.8,0-8.4-2.7-8.4-8.7s3.4-9.6,8.6-9.6c3.9,0,6.2,3,6.2,6.7c0,0.8-0.1,1.6-0.3,2.3L150,42.7L150,42.7z M150,40.6h7.4
	c0-0.3,0.1-0.6,0.1-0.9c0-2.7-1.7-3.9-3.4-3.9C151.6,35.9,150.2,37.4,150,40.6L150,40.6z"/>
<path class="st0" d="M164.2,50.7c0.8-0.3,1.5-0.6,2.2-1c0.6-0.4,0.7-1.4,0.7-3.1v-6.3c0-1.9-0.1-3.2-0.7-3.8
	c-0.7-0.5-1.4-0.9-2.2-1.2v-0.9l6.1-0.6l0.2,0.2v3.1c0.9-1.5,2.8-3.3,4.9-3.3c0.5,0,1.1,0.1,1.6,0.3c0.1,1.5-0.2,3-0.9,4.3
	c-2.5-1.1-5.6-1.8-5.6,2v6.2c0,1.7,0.2,2.8,0.7,3.1c0.9,0.4,1.8,0.8,2.8,1v0.8h-9.8L164.2,50.7L164.2,50.7z"/>
<path class="st0" d="M23.4,88l-5.9-11.5L16,73l0.2,3.5V88h-4V67.7h5l5,9.8l1.5,3.7l-0.2-3.5v-10h4V88H23.4L23.4,88z"/>
<path class="st0" d="M48.7,88l-1.4-4.7h-5.9L40,88h-4.3l6.2-20.3h4.9L53,88H48.7L48.7,88z M45.6,77.5L44.3,71l-1.2,6.5l-0.7,2.3h3.9
	L45.6,77.5z"/>
<path class="st0" d="M73.8,87.1c-1.6,0.8-3.3,1.2-5.1,1.2c-6.1,0-9.1-4.1-9.1-10.3c0-7.3,4.1-10.5,9.5-10.5c1.6,0,3.1,0.3,4.6,0.9
	V72c-1.3-0.5-2.7-0.8-4.1-0.8c-3.1,0-5.4,1.8-5.4,6.7c0,4.3,1.8,6.6,5.2,6.6c1.6,0,3.1-0.4,4.5-1.1V87.1L73.8,87.1z"/>
<path class="st0" d="M93.2,88v-8.5h-6.3V88h-4.3V67.7h4.3v7.9h6.3v-7.9h4.3V88H93.2z"/>
<path class="st0" d="M118.1,88v-8.5h-6.3V88h-4.3V67.7h4.3v7.9h6.3v-7.9h4.3V88H118.1z"/>
<path class="st0" d="M143.5,88l-1.4-4.7h-5.9l-1.4,4.7h-4.3l6.2-20.3h4.9l6.2,20.3H143.5z M140.4,77.5l-1.3-6.5l-1.2,6.5l-0.7,2.3
	h3.9L140.4,77.5z"/>
<path class="st0" d="M156,88V67.7h4.3v16.5h7.2V88H156L156,88z"/>
<path class="st0" d="M176.2,88V71.4h-4.8v-3.7h14v3.7h-4.9V88L176.2,88L176.2,88z"/>
<path class="st0" d="M193.4,88V67.7h4.3V88H193.4z"/>
<path class="st0" d="M218.9,80.5h-3.1v-3.3h7.3v9.6c-2,1-4.3,1.5-6.5,1.5c-6.4,0-9.5-3.9-9.5-10.3c0-7.4,4.2-10.5,10.1-10.5
	c1.8,0,3.6,0.3,5.3,1v3.7c-1.6-0.6-3.3-0.9-5-1c-3.4,0-5.9,1.6-5.9,6.7c0,3.8,1.5,6.9,5.2,6.9c0.8,0,1.5-0.1,2.3-0.3L218.9,80.5
	L218.9,80.5z"/>
<path class="st0" d="M243,88l-5-9.3l-0.9-0.9V88h-4.3V67.7h4.3v9.5l0.9-0.9l5-8.6h4.6l-5.5,9.5l5.8,10.8L243,88L243,88z"/>
<path class="st0" d="M255.8,88V67.7h11.7v3.7h-7.5v4.4h7.2v3.7h-7.2v4.8h7.9V88H255.8z"/>
<path class="st0" d="M277.2,88V67.7h4.3V88H277.2z"/>
<path class="st0" d="M294.4,88V71.4h-4.8v-3.7h14v3.7h-4.8V88L294.4,88L294.4,88z"/>
<path class="st0" d="M310.2,83.4c1.7,0.7,3.5,1.1,5.3,1.2c2.2,0,3.1-0.7,3.1-2.2c0-1.7-1.3-2.2-3.4-2.9c-2.7-1-5-2.1-5-6
	s2.3-6.1,7.1-6.1c1.7,0,3.4,0.3,4.9,0.9v3.6c-1.6-0.5-3.2-0.8-4.9-0.8c-2,0-2.8,0.7-2.8,2c0,1.5,1,2.1,3.2,2.8
	c2.7,1,5.2,2.2,5.2,6.1c0,4.3-2.8,6.2-7.5,6.2c-1.8,0.1-3.6-0.3-5.3-1.2L310.2,83.4L310.2,83.4z"/>
<path class="st0" d="M10.3,126.6c0.8-0.2,1.6-0.6,2.3-1.1c0.5-0.4,0.7-1.4,0.7-3.2v-14c0-1.7-0.1-2.7-0.7-3.1
	c-0.7-0.5-1.4-0.9-2.3-1.1v-1h9.5v0.9c-0.8,0.2-1.5,0.6-2.2,1.1c-0.6,0.4-0.7,1.4-0.7,3.1v14c0,1.7,0.1,2.7,0.7,3.2
	c0.7,0.5,1.5,0.8,2.3,1.1v1.1h-9.6L10.3,126.6L10.3,126.6z M17.9,114.8l6.8-7.9c0.4-0.4,0.7-0.8,0.8-1.4c0-0.7-0.9-1-2-1.3l0.1-0.9
	H32v0.9c-1.3,0.5-2.6,1.2-3.6,2.2l-6.7,7.3l6,8.8c0.7,1,1.4,2,2.3,2.8c0.7,0.6,1.5,1,2.4,1.3v1h-7.1c-0.1-1.5-0.7-3-1.6-4.2
	L17.9,114.8z"/>
<path class="st0" d="M34,119.4c0-5.6,3.2-9.7,8.7-9.7c5,0,7.7,3.4,7.7,8.6c0,5.9-3.1,9.7-8.6,9.7C37.2,128,34,124.7,34,119.4z
	 M46.6,119.5c0-4.3-1.2-7.6-4.5-7.6c-3,0-4.1,2.3-4.1,6.3c0,5.4,1.7,7.6,4.5,7.6C45.3,125.8,46.6,124.1,46.6,119.5z"/>
<path class="st0" d="M65.6,110.1v-3.2c0-1.9-0.1-3.3-0.7-3.8c-0.6-0.5-1.4-0.8-2.2-1v-0.9l6.5-1l0.2,0.2c-0.2,1-0.4,2-0.4,3V122
	c0,1.7,0.2,3.1,0.6,3.6c0.7,0.5,1.5,0.9,2.3,1.2v0.8h-5.6c-0.4-0.4-0.6-1-0.7-1.5c-1.3,1.2-2.9,1.8-4.7,1.9c-4.3,0-6.8-3.1-6.8-8.3
	c0-6.4,3.9-9.6,9.8-9.6C64.5,110,65.1,110.1,65.6,110.1z M65.6,124.9v-12.1c-0.9-0.2-1.8-0.3-2.7-0.3c-3.3,0-5,1.8-5,6.1
	c0,4.7,1.6,6.9,4.6,6.9C63.6,125.4,64.6,125.2,65.6,124.9z"/>
<path class="st0" d="M78.6,118.8c0,4.4,2.4,6.3,5.8,6.3c1.7,0,3.5-0.4,5.1-1.1l-0.5,2.7c-1.7,0.8-3.6,1.3-5.6,1.2
	c-4.8,0-8.4-2.7-8.4-8.7c0-6,3.4-9.6,8.6-9.6c3.9,0,6.2,3,6.2,6.7c0,0.8-0.1,1.6-0.3,2.3L78.6,118.8L78.6,118.8z M78.6,116.7h7.3
	c0-0.3,0.1-0.6,0.1-0.9c0-2.7-1.7-3.9-3.4-3.9C80.2,111.9,78.8,113.5,78.6,116.7z"/>
<path class="st0" d="M101,126.7c0.8-0.2,1.5-0.5,1.5-1.2c0-0.5-0.2-1-0.5-1.4l-2.3-3.2l-1.7,2.6c-0.5,0.5-0.8,1.2-0.8,1.9
	c0,0.7,0.6,1,1.4,1.3v0.9h-7v-0.9c0.6-0.2,1.2-0.6,1.7-0.9c0.7-0.6,1.3-1.3,1.8-2l3.3-4.6l-3.4-4.9c-0.5-0.7-1-1.4-1.6-2
	c-0.5-0.4-1.1-0.7-1.6-1v-0.9l7.9-0.3v0.9c-0.8,0.2-1.6,0.5-1.6,1.2c0.1,0.5,0.3,1,0.6,1.3l2.2,3.1l1.7-2.5c0.4-0.5,0.7-1.1,0.8-1.8
	c0-0.7-0.7-1-1.5-1.3v-0.9l6.5,0.2v0.9c-0.6,0.2-1.2,0.5-1.7,0.9c-0.6,0.6-1.2,1.2-1.7,1.9l-3,4.3l3.6,5.1c0.6,0.8,1.2,1.6,1.9,2.3
	c0.5,0.4,1,0.7,1.6,0.9v0.9h-8V126.7L101,126.7z"/>
</svg>
