<?xml version="1.0" encoding="utf-8"?>
<!-- Generator: Adobe Illustrator 22.0.1, SVG Export Plug-In . SVG Version: 6.00 Build 0)  -->
<svg version="1.1" xmlns="http://www.w3.org/2000/svg" xmlns:xlink="http://www.w3.org/1999/xlink" x="0px" y="0px"
	 viewBox="0 0 130 130" style="enable-background:new 0 0 130 130;" xml:space="preserve">
<style type="text/css">
	.st0{display:none;}
	.st1{display:inline;fill:#FFFFFF;}
	.st2{fill:#C7D300;}
	.st3{fill:#FFFFFF;}
</style>
<g id="Ebene_2" class="st0">
	<rect x="1" y="125.8" class="st1" width="102" height="4.2"/>
</g>
<g id="Ebene_1">
	<path class="st2" d="M41.9,4.7C27.4,4.7,13.3,8.8,1,16.5v110.3l2,1.7h100c25.9-33.7,19.6-82-14-107.9C75.4,10.3,58.9,4.7,41.9,4.7z
		"/>
	<path class="st3" d="M0,21.2C34-1.3,80.8,7,103.3,41c17.9,27,14.5,64-6,89H79c25.9-21.3,31.2-61.1,9.9-87S29.4,13.3,3.4,34.6
		C2.6,35.3,0.8,37,0,37.7V21.8V21.2z"/>
	<polygon class="st3" points="54.7,81 55.3,92.8 49.9,80.5 32.1,47.6 14.4,47.6 14.4,115.9 28.8,115.9 28.8,77.1 28,65.4 33.3,77.2 
		54.3,115.9 69,115.9 69,47.6 54.7,47.6 	"/>
</g>
</svg>
